<svg width="15" height="11" viewBox="0 0 15 11" fill="none" xmlns="http://www.w3.org/2000/svg">
<path d="M14.9047 5.20819C14.7707 5.02488 11.5778 0.719727 7.49993 0.719727C3.42206 0.719727 0.229043 5.02488 0.0951857 5.20802C-0.0317286 5.38192 -0.0317286 5.61779 0.0951857 5.7917C0.229043 5.97501 3.42206 10.2802 7.49993 10.2802C11.5778 10.2802 14.7707 5.97498 14.9047 5.79185C15.0318 5.61797 15.0318 5.38192 14.9047 5.20819ZM7.49993 9.29116C4.49614 9.29116 1.89454 6.43374 1.12442 5.49961C1.89355 4.56466 4.4897 1.70873 7.49993 1.70873C10.5036 1.70873 13.105 4.56565 13.8754 5.50028C13.1063 6.43521 10.5102 9.29116 7.49993 9.29116Z" fill="#D9D9D9"/>
</svg>
