<svg width="15" height="15" viewBox="0 0 15 15" fill="#D9D9D9" xmlns="http://www.w3.org/2000/svg">
<path d="M14.9047 7.20819C14.7707 7.02488 11.5778 2.71973 7.49993 2.71973C3.42206 2.71973 0.229043 7.02488 0.0951857 7.20802C-0.0317286 7.38192 -0.0317286 7.61779 0.0951857 7.7917C0.229043 7.97501 3.42206 12.2802 7.49993 12.2802C11.5778 12.2802 14.7707 7.97498 14.9047 7.79185C15.0318 7.61797 15.0318 7.38192 14.9047 7.20819ZM7.49993 11.2912C4.49614 11.2912 1.89454 8.43374 1.12442 7.49961C1.89355 6.56466 4.4897 3.70873 7.49993 3.70873C10.5036 3.70873 13.105 6.56565 13.8754 7.50028C13.1063 8.43521 10.5102 11.2912 7.49993 11.2912Z" fill="inherit"/>
<path d="M7.50001 4.53296C5.86401 4.53296 4.53296 5.86401 4.53296 7.50001C4.53296 9.136 5.86401 10.4671 7.50001 10.4671C9.136 10.4671 10.4671 9.136 10.4671 7.50001C10.4671 5.86401 9.136 4.53296 7.50001 4.53296ZM7.50001 9.47802C6.40928 9.47802 5.52199 8.5907 5.52199 7.50001C5.52199 6.40931 6.40931 5.52199 7.50001 5.52199C8.5907 5.52199 9.47802 6.40931 9.47802 7.50001C9.47802 8.5907 8.59073 9.47802 7.50001 9.47802Z" fill="inherit"/>
</svg>
