<svg width="12" height="13" viewBox="0 0 12 13" fill="#D9D9D9" xmlns="http://www.w3.org/2000/svg">
<path fill-rule="evenodd" clip-rule="evenodd" d="M1.52588e-05 6.06665V0H1.00002L1.00002 6.15181C1.49631 6.23687 1.9828 6.38514 2.44917 6.59441C3.22566 6.94284 3.93119 7.45355 4.52548 8.09736C5.11978 8.74117 5.5912 9.50549 5.91283 10.3467C6.11597 10.878 6.25685 11.4334 6.33307 11.9999H12V12.9999H6.4C6.4 12.9999 6.4 12.9999 6.4 12.9999H5.4H1H4.76837e-07V11.9999V7.06665L0 6.06665C5.08626e-06 6.06665 1.01725e-05 6.06665 1.52588e-05 6.06665ZM5.32265 11.9999C5.25342 11.5556 5.13817 11.1207 4.97877 10.7038C4.70125 9.978 4.29633 9.32343 3.79068 8.77564C3.28518 8.22802 2.68944 7.79829 2.03977 7.50677C1.70307 7.35568 1.35468 7.24295 1.00002 7.16942L1.00001 11.9999H5.32265Z" fill="inherit"/>
</svg>
