<svg width="21" height="5" viewBox="0 0 21 5" fill="none" xmlns="http://www.w3.org/2000/svg">
<path d="M2.816 4.18C2.288 4.18 1.832 3.988 1.448 3.604C1.088 3.22 0.908 2.752 0.908 2.2C0.908 1.648 1.088 1.192 1.448 0.832C1.832 0.448 2.288 0.256 2.816 0.256C3.344 0.256 3.8 0.448 4.184 0.832C4.568 1.192 4.76 1.648 4.76 2.2C4.76 2.752 4.568 3.22 4.184 3.604C3.8 3.988 3.344 4.18 2.816 4.18ZM10.4449 4.18C9.91691 4.18 9.46091 3.988 9.07691 3.604C8.71691 3.22 8.53691 2.752 8.53691 2.2C8.53691 1.648 8.71691 1.192 9.07691 0.832C9.46091 0.448 9.91691 0.256 10.4449 0.256C10.9729 0.256 11.4289 0.448 11.8129 0.832C12.1969 1.192 12.3889 1.648 12.3889 2.2C12.3889 2.752 12.1969 3.22 11.8129 3.604C11.4289 3.988 10.9729 4.18 10.4449 4.18ZM18.0738 4.18C17.5458 4.18 17.0898 3.988 16.7058 3.604C16.3458 3.22 16.1658 2.752 16.1658 2.2C16.1658 1.648 16.3458 1.192 16.7058 0.832C17.0898 0.448 17.5458 0.256 18.0738 0.256C18.6018 0.256 19.0578 0.448 19.4418 0.832C19.8258 1.192 20.0178 1.648 20.0178 2.2C20.0178 2.752 19.8258 3.22 19.4418 3.604C19.0578 3.988 18.6018 4.18 18.0738 4.18Z" fill="#D9D9D9"/>
</svg>
