<svg width="15" height="15" viewBox="0 0 15 15" fill="#D9D9D9" xmlns="http://www.w3.org/2000/svg">
<path d="M7.49997 10.5497C5.81833 10.5497 4.4502 9.18164 4.4502 7.49997C4.4502 5.8183 5.81833 4.4502 7.49997 4.4502C9.18161 4.4502 10.5497 5.81833 10.5497 7.49997C10.5497 9.18161 9.18161 10.5497 7.49997 10.5497ZM7.49997 5.3291C6.30296 5.3291 5.3291 6.30296 5.3291 7.49997C5.3291 8.69698 6.30293 9.67084 7.49997 9.67084C8.69701 9.67084 9.67084 8.69698 9.67084 7.49997C9.67084 6.30296 8.69698 5.3291 7.49997 5.3291V5.3291Z" fill="inherit"/>
<path d="M7.5 3.40052C7.2573 3.40052 7.06055 3.20376 7.06055 2.96106V0.439453C7.06055 0.196758 7.2573 0 7.5 0C7.7427 0 7.93945 0.196758 7.93945 0.439453V2.96106C7.93945 3.20376 7.7427 3.40052 7.5 3.40052Z" fill="inherit"/>
<path d="M4.29053 4.72983C4.17806 4.72983 4.06559 4.68694 3.9798 4.60113L2.19671 2.81806C2.02509 2.64644 2.02509 2.36821 2.19671 2.19659C2.3683 2.02497 2.64656 2.02497 2.81818 2.19659L4.60125 3.97962C4.77287 4.15124 4.77287 4.42948 4.60125 4.6011C4.51547 4.68691 4.403 4.72983 4.29053 4.72983Z" fill="inherit"/>
<path d="M2.96106 7.93945H0.439453C0.196758 7.93945 0 7.7427 0 7.5C0 7.2573 0.196758 7.06055 0.439453 7.06055H2.96106C3.20376 7.06055 3.40052 7.2573 3.40052 7.5C3.40052 7.7427 3.20376 7.93945 2.96106 7.93945Z" fill="inherit"/>
<path d="M2.50743 12.932C2.39496 12.932 2.28249 12.8891 2.19671 12.8032C2.02509 12.6316 2.02509 12.3534 2.19671 12.1818L3.97978 10.3987C4.1514 10.2271 4.42966 10.2271 4.60125 10.3987C4.77287 10.5703 4.77287 10.8486 4.60125 11.0202L2.81815 12.8033C2.73237 12.889 2.6199 12.932 2.50743 12.932V12.932Z" fill="inherit"/>
<path d="M7.5 14.9999C7.2573 14.9999 7.06055 14.8031 7.06055 14.5604V12.0388C7.06055 11.7961 7.2573 11.5994 7.5 11.5994C7.7427 11.5994 7.93945 11.7961 7.93945 12.0388V14.5604C7.93945 14.8031 7.7427 14.9999 7.5 14.9999Z" fill="inherit"/>
<path d="M12.4925 12.9319C12.3801 12.9319 12.2676 12.8891 12.1818 12.8032L10.3987 11.0202C10.2271 10.8486 10.2271 10.5704 10.3987 10.3987C10.5703 10.2271 10.8486 10.2271 11.0202 10.3987L12.8033 12.1818C12.9749 12.3534 12.9749 12.6316 12.8033 12.8032C12.7175 12.889 12.605 12.9319 12.4925 12.9319Z" fill="inherit"/>
<path d="M14.5606 7.93945H12.0389C11.7962 7.93945 11.5995 7.7427 11.5995 7.5C11.5995 7.2573 11.7962 7.06055 12.0389 7.06055H14.5606C14.8032 7.06055 15 7.2573 15 7.5C15 7.7427 14.8032 7.93945 14.5606 7.93945Z" fill="inherit"/>
<path d="M10.7095 4.72981C10.597 4.72981 10.4845 4.68692 10.3987 4.60108C10.2271 4.42946 10.2271 4.15122 10.3987 3.9796L12.1818 2.19656C12.3534 2.025 12.6317 2.02494 12.8033 2.19656C12.9749 2.36819 12.9749 2.64642 12.8033 2.81804L11.0202 4.60108C10.9344 4.68689 10.8219 4.72981 10.7095 4.72981V4.72981Z" fill="inherit"/>
</svg>
