<svg width="18" height="16" viewBox="0 0 18 16" fill="#D9D9D9" xmlns="http://www.w3.org/2000/svg">
<path d="M15.3 0H2.7C1.20952 0.00159156 0.00161133 1.19468 0 2.66687V10.3711C0.00161133 11.8433 1.20952 13.0364 2.7 13.038H3.53394L3.00601 15.6456C2.9833 15.7577 3.02798 15.8726 3.12056 15.941C3.21314 16.0094 3.33735 16.0191 3.43975 15.9659L9.07412 13.038H15.3C16.7905 13.0364 17.9984 11.8433 18 10.3711V2.66687C17.9984 1.19468 16.7905 0.00159156 15.3 0ZM17.4 10.3711C17.3987 11.5162 16.4593 12.4441 15.3 12.4454H9C8.95122 12.4454 8.90332 12.4571 8.86025 12.4795L3.71792 15.1529L4.19399 12.801C4.21201 12.7138 4.18945 12.6232 4.13247 12.5543C4.07549 12.4853 3.99009 12.4454 3.9 12.4454H2.7C1.54072 12.4441 0.601318 11.5162 0.6 10.3711V2.66687C0.601318 1.52182 1.54072 0.593939 2.7 0.592637H15.3C16.4593 0.593939 17.3987 1.52182 17.4 2.66687V10.3711Z" fill="inherit"/>
</svg>
