<svg width="15" height="16" viewBox="0 0 15 16" fill="#D9D9D9" xmlns="http://www.w3.org/2000/svg">
<path d="M0.46875 0.121094H14.0273L14.1562 4.19922H13.582C13.3008 2.91797 12.9414 2.08594 12.5039 1.70312C12.0742 1.3125 11.1641 1.11719 9.77344 1.11719H8.4375V13.3984C8.4375 14.3281 8.58203 14.9062 8.87109 15.1328C9.16016 15.3516 9.79297 15.4961 10.7695 15.5664V16H3.77344V15.5664C4.78906 15.4883 5.42188 15.3203 5.67188 15.0625C5.92188 14.8047 6.04688 14.1562 6.04688 13.1172V1.11719H4.71094C3.38281 1.11719 2.47656 1.30859 1.99219 1.69141C1.51562 2.07422 1.15625 2.91016 0.914062 4.19922H0.328125L0.46875 0.121094Z" fill="inherit"/>
</svg>
