<svg width="6" height="8" viewBox="0 0 6 8" fill="#D9D9D9" xmlns="http://www.w3.org/2000/svg">
<path d="M3.2107 0.0883824C3.09642 -0.0279791 2.90945 -0.0296541 2.79311 0.0846137C2.79184 0.0858532 2.79058 0.0871094 2.78934 0.0883824C2.68129 0.206436 0.141357 3.00248 0.141357 5.14132C0.141357 7.03832 1.10301 7.99998 3.00002 7.99998C4.89704 7.99998 5.85868 7.03833 5.85868 5.14132C5.85868 3.00248 3.31876 0.206436 3.2107 0.0883824ZM3.00002 7.42824C1.39717 7.42824 0.7131 6.74416 0.7131 5.14132C0.7131 3.55935 2.39771 1.42822 3.00002 0.716705C3.60233 1.42822 5.28694 3.55935 5.28694 5.14132C5.28694 6.74417 4.60287 7.42824 3.00002 7.42824Z" fill="inherit"/>
</svg>
